<svg width="659" height="674" viewBox="0 0 659 674" fill="none" xmlns="http://www.w3.org/2000/svg">
<rect width="659" height="674" fill="#F1B269"/>
<path d="M45.9091 111.034L45.9091 120.136L22.4545 129.75L22.4545 130.159L45.9091 139.773L45.9091 148.875L11 148.875L11 141.716L33.7216 141.716L33.7216 141.426L11.1705 132.392L11.1705 127.517L33.8068 118.483L33.8068 118.193L11 118.193L11 111.034L45.9091 111.034ZM10.4886 166.649C10.4886 164.001 11.0511 161.712 12.1761 159.78C13.3125 157.859 14.892 156.376 16.9148 155.331C18.9489 154.286 21.3068 153.763 23.9886 153.763C26.6932 153.763 29.0568 154.286 31.0795 155.331C33.1136 156.376 34.6932 157.859 35.8182 159.78C36.9545 161.712 37.5227 164.001 37.5227 166.649C37.5227 169.297 36.9545 171.581 35.8182 173.501C34.6932 175.433 33.1136 176.922 31.0795 177.967C29.0568 179.013 26.6932 179.536 23.9886 179.536C21.3068 179.536 18.9489 179.013 16.9148 177.967C14.892 176.922 13.3125 175.433 12.1761 173.501C11.0511 171.581 10.4886 169.297 10.4886 166.649ZM16.1136 166.683C16.1136 167.888 16.4545 168.893 17.1364 169.7C17.8295 170.507 18.7727 171.115 19.9659 171.524C21.1591 171.945 22.517 172.155 24.0398 172.155C25.5625 172.155 26.9205 171.945 28.1136 171.524C29.3068 171.115 30.25 170.507 30.9432 169.7C31.6364 168.893 31.983 167.888 31.983 166.683C31.983 165.467 31.6364 164.445 30.9432 163.615C30.25 162.797 29.3068 162.178 28.1136 161.757C26.9205 161.348 25.5625 161.143 24.0398 161.143C22.517 161.143 21.1591 161.348 19.9659 161.757C18.7727 162.178 17.8295 162.797 17.1364 163.615C16.4545 164.445 16.1136 165.467 16.1136 166.683ZM26.1364 191.518L11 191.518L11 184.257L37.1818 184.257L37.1818 191.178L32.5625 191.178L32.5625 191.484C34.0852 192.064 35.2898 193.036 36.1761 194.399C37.0739 195.763 37.5227 197.416 37.5227 199.359C37.5227 201.178 37.125 202.763 36.3295 204.115C35.5341 205.467 34.3977 206.518 32.9205 207.268C31.4545 208.018 29.7045 208.393 27.6705 208.393L11 208.393L11 201.132L26.375 201.132C27.9773 201.143 29.2273 200.734 30.125 199.905C31.0341 199.075 31.4886 197.933 31.4886 196.479C31.4886 195.501 31.2784 194.638 30.858 193.888C30.4375 193.149 29.8239 192.57 29.017 192.149C28.2216 191.74 27.2614 191.53 26.1364 191.518ZM10.4886 226.048C10.4886 223.355 11.0341 221.037 12.125 219.094C13.2273 217.162 14.7841 215.673 16.7955 214.628C18.8182 213.582 21.2102 213.06 23.9716 213.06C26.6648 213.06 29.0284 213.582 31.0625 214.628C33.0966 215.673 34.6818 217.145 35.8182 219.043C36.9545 220.952 37.5227 223.19 37.5227 225.759C37.5227 227.486 37.2443 229.094 36.6875 230.582C36.142 232.082 35.3182 233.389 34.2159 234.503C33.1136 235.628 31.7273 236.503 30.0568 237.128C28.3977 237.753 26.4545 238.065 24.2273 238.065L22.2329 238.065L22.233 215.957L26.733 215.957L26.733 231.23C27.7784 231.23 28.7045 231.003 29.5114 230.548C30.3182 230.094 30.9489 229.463 31.4034 228.656C31.8693 227.861 32.1023 226.935 32.1023 225.878C32.1023 224.776 31.8466 223.798 31.3352 222.946C30.8352 222.105 30.1591 221.446 29.3068 220.969C28.4659 220.491 27.5284 220.247 26.4943 220.236L22.2159 220.236C20.9205 220.236 19.8011 220.474 18.8579 220.952C17.9148 221.44 17.1875 222.128 16.6761 223.014C16.1648 223.901 15.9091 224.952 15.9091 226.168C15.9091 226.974 16.0227 227.713 16.25 228.384C16.4773 229.054 16.8182 229.628 17.2727 230.105C17.7273 230.582 18.2841 230.946 18.9432 231.196L18.5 237.912C16.8864 237.571 15.4773 236.872 14.2727 235.815C13.0795 234.77 12.1477 233.418 11.4773 231.759C10.8182 230.111 10.4886 228.207 10.4886 226.048ZM11 242.804L37.1818 242.804L37.1818 249.844L32.6136 249.844L32.6136 250.116C34.2386 250.594 35.4659 251.395 36.2954 252.52C37.1364 253.645 37.5568 254.94 37.5568 256.406C37.5568 256.77 37.5341 257.162 37.4886 257.582C37.4432 258.003 37.3807 258.372 37.3011 258.69L30.8579 258.69C30.9602 258.349 31.0511 257.878 31.1307 257.276C31.2102 256.673 31.25 256.122 31.25 255.622C31.25 254.554 31.017 253.599 30.5511 252.759C30.0966 251.929 29.4602 251.27 28.642 250.781C27.8239 250.304 26.8807 250.065 25.8125 250.065L11 250.065L11 242.804ZM10.4886 273.055C10.4886 270.408 11.0511 268.118 12.1761 266.186C13.3125 264.266 14.892 262.783 16.9148 261.737C18.9489 260.692 21.3068 260.169 23.9886 260.169C26.6932 260.169 29.0568 260.692 31.0795 261.737C33.1136 262.783 34.6932 264.266 35.8182 266.186C36.9545 268.118 37.5227 270.408 37.5227 273.055C37.5227 275.703 36.9545 277.987 35.8182 279.908C34.6932 281.839 33.1136 283.328 31.0795 284.374C29.0568 285.419 26.6932 285.942 23.9886 285.942C21.3068 285.942 18.9489 285.419 16.9148 284.374C14.892 283.328 13.3125 281.839 12.1761 279.908C11.0511 277.987 10.4886 275.703 10.4886 273.055ZM16.1136 273.089C16.1136 274.294 16.4545 275.3 17.1364 276.107C17.8295 276.913 18.7727 277.521 19.9659 277.93C21.1591 278.351 22.517 278.561 24.0398 278.561C25.5625 278.561 26.9204 278.351 28.1136 277.93C29.3068 277.521 30.25 276.913 30.9432 276.107C31.6364 275.3 31.9829 274.294 31.9829 273.089C31.9829 271.874 31.6364 270.851 30.9432 270.021C30.25 269.203 29.3068 268.584 28.1136 268.163C26.9204 267.754 25.5625 267.55 24.0398 267.55C22.517 267.55 21.1591 267.754 19.9659 268.163C18.7727 268.584 17.8295 269.203 17.1364 270.021C16.4545 270.851 16.1136 271.874 16.1136 273.089ZM45.9091 301.909L45.9091 311.011L22.4545 320.625L22.4545 321.034L45.9091 330.648L45.9091 339.75L11 339.75L11 332.591L33.7216 332.591L33.7216 332.301L11.1704 323.267L11.1704 318.392L33.8068 309.358L33.8068 309.068L11 309.068L11 301.909L45.9091 301.909ZM10.4886 357.626C10.4886 354.933 11.0341 352.615 12.125 350.672C13.2273 348.74 14.7841 347.251 16.7954 346.206C18.8182 345.161 21.2102 344.638 23.9716 344.638C26.6648 344.638 29.0284 345.161 31.0625 346.206C33.0966 347.251 34.6818 348.723 35.8182 350.621C36.9545 352.53 37.5227 354.768 37.5227 357.337C37.5227 359.064 37.2443 360.672 36.6875 362.161C36.142 363.661 35.3182 364.967 34.2159 366.081C33.1136 367.206 31.7273 368.081 30.0568 368.706C28.3977 369.331 26.4545 369.643 24.2273 369.643L22.2329 369.643L22.2329 347.536L26.7329 347.536L26.7329 362.808C27.7784 362.808 28.7045 362.581 29.5114 362.126C30.3182 361.672 30.9489 361.041 31.4034 360.234C31.8693 359.439 32.1023 358.513 32.1023 357.456C32.1023 356.354 31.8466 355.376 31.3352 354.524C30.8352 353.683 30.1591 353.024 29.3068 352.547C28.4659 352.07 27.5284 351.825 26.4943 351.814L22.2159 351.814C20.9204 351.814 19.8011 352.053 18.8579 352.53C17.9148 353.018 17.1875 353.706 16.6761 354.592C16.1648 355.479 15.9091 356.53 15.9091 357.746C15.9091 358.553 16.0227 359.291 16.25 359.962C16.4773 360.632 16.8182 361.206 17.2727 361.683C17.7273 362.161 18.2841 362.524 18.9432 362.774L18.5 369.49C16.8864 369.149 15.4773 368.45 14.2727 367.393C13.0795 366.348 12.1477 364.996 11.4773 363.337C10.8182 361.689 10.4886 359.786 10.4886 357.626ZM10.5057 381.848C10.5057 380.178 10.7954 378.689 11.375 377.382C11.9659 376.075 12.8352 375.041 13.9829 374.28C15.142 373.53 16.5852 373.155 18.3125 373.155C19.767 373.155 20.9886 373.422 21.9773 373.956C22.9659 374.49 23.7614 375.217 24.3636 376.138C24.9659 377.058 25.4204 378.104 25.7273 379.274C26.0341 380.456 26.25 381.695 26.375 382.99C26.5341 384.513 26.6818 385.74 26.8182 386.672C26.9659 387.604 27.1818 388.28 27.4659 388.7C27.75 389.121 28.1704 389.331 28.7273 389.331L28.8295 389.331C29.9091 389.331 30.7443 388.99 31.3352 388.308C31.9261 387.638 32.2216 386.683 32.2216 385.445C32.2216 384.138 31.9318 383.098 31.3523 382.325C30.7841 381.553 30.0682 381.041 29.2045 380.791L29.75 374.075C31.3409 374.416 32.7159 375.087 33.875 376.087C35.0454 377.087 35.9432 378.376 36.5682 379.956C37.2045 381.547 37.5227 383.388 37.5227 385.479C37.5227 386.933 37.3523 388.325 37.0114 389.655C36.6704 390.996 36.142 392.183 35.4261 393.217C34.7102 394.263 33.7898 395.087 32.6648 395.689C31.5511 396.291 30.2159 396.592 28.6591 396.592L11 396.592L11 389.706L14.6307 389.706L14.6307 389.501C13.8125 389.081 13.0909 388.518 12.4659 387.814C11.8523 387.109 11.3693 386.263 11.017 385.274C10.6761 384.286 10.5057 383.143 10.5057 381.848ZM15.517 383.928C15.517 384.996 15.7273 385.939 16.1477 386.757C16.5795 387.575 17.1591 388.217 17.8864 388.683C18.6136 389.149 19.4375 389.382 20.3579 389.382L23.1364 389.382C22.9886 389.155 22.8523 388.842 22.7273 388.445C22.6136 388.058 22.5057 387.621 22.4034 387.132C22.3125 386.643 22.2273 386.155 22.1477 385.666C22.0795 385.178 22.017 384.734 21.9602 384.337C21.8352 383.484 21.6364 382.74 21.3636 382.104C21.0909 381.467 20.7216 380.973 20.2557 380.621C19.8011 380.268 19.2329 380.092 18.5511 380.092C17.5625 380.092 16.8068 380.45 16.2841 381.166C15.7727 381.893 15.517 382.814 15.517 383.928ZM26.1364 409.487L11 409.487L11 402.226L37.1818 402.226L37.1818 409.146L32.5625 409.146L32.5625 409.453C34.0852 410.033 35.2898 411.004 36.1761 412.368C37.0739 413.732 37.5227 415.385 37.5227 417.328C37.5227 419.146 37.125 420.732 36.3295 422.084C35.5341 423.436 34.3977 424.487 32.9204 425.237C31.4545 425.987 29.7045 426.362 27.6704 426.362L11 426.362L11 419.101L26.375 419.101C27.9773 419.112 29.2273 418.703 30.125 417.874C31.0341 417.044 31.4886 415.902 31.4886 414.447C31.4886 413.47 31.2784 412.607 30.8579 411.857C30.4375 411.118 29.8239 410.538 29.017 410.118C28.2216 409.709 27.2614 409.499 26.1364 409.487ZM29.7159 453.869L29.3068 447.222C29.875 447.108 30.3863 446.864 30.8409 446.489C31.3068 446.114 31.6761 445.619 31.9489 445.006C32.2329 444.403 32.375 443.682 32.375 442.841C32.375 441.716 32.1363 440.767 31.6591 439.994C31.1932 439.222 30.5682 438.835 29.7841 438.835C29.1591 438.835 28.6307 439.085 28.1988 439.585C27.767 440.085 27.4204 440.943 27.1591 442.159L26.2045 446.898C25.6818 449.443 24.8409 451.341 23.6818 452.591C22.5227 453.841 21 454.466 19.1136 454.466C17.3977 454.466 15.892 453.96 14.5966 452.949C13.3011 451.949 12.2898 450.574 11.5625 448.824C10.8466 447.085 10.4886 445.08 10.4886 442.807C10.4886 439.341 11.2102 436.58 12.6534 434.523C14.1079 432.477 16.0852 431.278 18.5852 430.926L18.9602 438.068C17.9034 438.284 17.0966 438.807 16.5398 439.636C15.9943 440.466 15.7216 441.528 15.7216 442.824C15.7216 444.097 15.9659 445.119 16.4545 445.892C16.9545 446.676 17.5966 447.074 18.3807 447.085C19.0398 447.074 19.5795 446.795 20 446.25C20.4318 445.705 20.7613 444.864 20.9886 443.727L21.892 439.193C22.4034 436.636 23.2898 434.733 24.5511 433.483C25.8125 432.244 27.4204 431.625 29.375 431.625C31.0568 431.625 32.5057 432.08 33.7216 432.989C34.9375 433.909 35.875 435.199 36.5341 436.858C37.1932 438.528 37.5227 440.483 37.5227 442.722C37.5227 446.028 36.8238 448.631 35.4261 450.528C34.0284 452.437 32.125 453.551 29.7159 453.869ZM45.9091 470.284L45.9091 479.386L22.4545 489L22.4545 489.409L45.9091 499.023L45.9091 508.125L11 508.125L11 500.966L33.7216 500.966L33.7216 500.676L11.1704 491.642L11.1704 486.767L33.8068 477.733L33.8068 477.443L11 477.443L11 470.284L45.9091 470.284ZM10.4886 525.899C10.4886 523.251 11.0511 520.962 12.1761 519.03C13.3125 517.109 14.892 515.626 16.9148 514.581C18.9488 513.536 21.3068 513.013 23.9886 513.013C26.6932 513.013 29.0568 513.536 31.0795 514.581C33.1136 515.626 34.6932 517.109 35.8182 519.03C36.9545 520.962 37.5227 523.251 37.5227 525.899C37.5227 528.547 36.9545 530.831 35.8182 532.751C34.6932 534.683 33.1136 536.172 31.0795 537.217C29.0568 538.263 26.6932 538.786 23.9886 538.786C21.3068 538.786 18.9488 538.263 16.9148 537.217C14.892 536.172 13.3125 534.683 12.1761 532.751C11.0511 530.831 10.4886 528.547 10.4886 525.899ZM16.1136 525.933C16.1136 527.138 16.4545 528.143 17.1363 528.95C17.8295 529.757 18.7727 530.365 19.9659 530.774C21.1591 531.195 22.517 531.405 24.0398 531.405C25.5625 531.405 26.9204 531.195 28.1136 530.774C29.3068 530.365 30.25 529.757 30.9432 528.95C31.6363 528.143 31.9829 527.138 31.9829 525.933C31.9829 524.717 31.6363 523.695 30.9432 522.865C30.25 522.047 29.3068 521.428 28.1136 521.007C26.9204 520.598 25.5625 520.393 24.0398 520.393C22.517 520.393 21.1591 520.598 19.9659 521.007C18.7727 521.428 17.8295 522.047 17.1363 522.865C16.4545 523.695 16.1136 524.717 16.1136 525.933ZM26.1363 550.768L11 550.768L11 543.507L37.1818 543.507L37.1818 550.428L32.5625 550.428L32.5625 550.734C34.0852 551.314 35.2898 552.286 36.1761 553.649C37.0738 555.013 37.5227 556.666 37.5227 558.609C37.5227 560.428 37.125 562.013 36.3295 563.365C35.5341 564.717 34.3977 565.768 32.9204 566.518C31.4545 567.268 29.7045 567.643 27.6704 567.643L11 567.643L11 560.382L26.375 560.382C27.9773 560.393 29.2273 559.984 30.125 559.155C31.0341 558.325 31.4886 557.183 31.4886 555.729C31.4886 554.751 31.2784 553.888 30.8579 553.138C30.4375 552.399 29.8238 551.82 29.017 551.399C28.2216 550.99 27.2613 550.78 26.1363 550.768ZM10.4886 585.298C10.4886 582.605 11.0341 580.287 12.125 578.344C13.2273 576.412 14.7841 574.923 16.7954 573.878C18.8182 572.832 21.2102 572.31 23.9716 572.31C26.6648 572.31 29.0284 572.832 31.0625 573.878C33.0966 574.923 34.6818 576.395 35.8182 578.293C36.9545 580.202 37.5227 582.44 37.5227 585.009C37.5227 586.736 37.2443 588.344 36.6875 589.832C36.142 591.332 35.3182 592.639 34.2159 593.753C33.1136 594.878 31.7273 595.753 30.0568 596.378C28.3977 597.003 26.4545 597.315 24.2273 597.315L22.2329 597.315L22.2329 575.207L26.7329 575.207L26.7329 590.48C27.7784 590.48 28.7045 590.253 29.5113 589.798C30.3182 589.344 30.9488 588.713 31.4034 587.906C31.8693 587.111 32.1023 586.185 32.1023 585.128C32.1023 584.026 31.8466 583.048 31.3352 582.196C30.8352 581.355 30.1591 580.696 29.3068 580.219C28.4659 579.741 27.5284 579.497 26.4943 579.486L22.2159 579.486C20.9204 579.486 19.8011 579.724 18.8579 580.202C17.9148 580.69 17.1875 581.378 16.6761 582.264C16.1648 583.151 15.9091 584.202 15.9091 585.418C15.9091 586.224 16.0227 586.963 16.25 587.634C16.4773 588.304 16.8182 588.878 17.2727 589.355C17.7273 589.832 18.2841 590.196 18.9432 590.446L18.5 597.162C16.8863 596.821 15.4773 596.122 14.2727 595.065C13.0795 594.02 12.1477 592.668 11.4773 591.009C10.8182 589.361 10.4886 587.457 10.4886 585.298ZM1.1818 605.834C1.1818 604.913 1.25566 604.05 1.40339 603.243C1.53975 602.447 1.71589 601.788 1.9318 601.266L7.35225 602.902C7.09089 603.754 6.94884 604.521 6.92611 605.203C6.90339 605.896 7.06248 606.493 7.40339 606.993C7.7443 607.504 8.32384 607.919 9.14202 608.237L10.25 608.663L37.1818 599.271L37.1818 606.908L17.9545 612.328L17.9545 612.601L37.1818 618.072L37.1818 625.76L8.17043 615.584C6.76134 615.095 5.53407 614.43 4.48861 613.589C3.4318 612.76 2.6193 611.709 2.05111 610.436C1.47157 609.163 1.1818 607.629 1.1818 605.834Z" fill="#F1B269"/>
</svg>
